# xmcd
#
# Track frame offsets:
#	150
#	12865
#	32617
#	56630
#	74856
#	90890
#	109749
#	129178
#	147006
#	160798
#	181633
#	199387
#	219214
#	232111
#	245108
#
# Disc length: 3589 seconds
#
# Revision: 0
# Processed by: cddbd v1.5.2PL0 Copyright (c) Steve Scherf et al.
# Submitted via: EasyCDDAExtractor 12.0.1.1
#
DISCID=ca0e030f
DTITLE=Alan Jackson - Live at Texas Stadium
DYEAR=2007
DGENRE=Country
TTITLE0=Honk If You Honky Tonk
TTITLE1=Murder On Music Row
TTITLE2=Milk Cow Blues
TTITLE3=Cowboys Like Us
TTITLE4=All My Ex's Live In Texas
TTITLE5=Hey Good Lookin'
TTITLE6=Sea Of Heartbreak
TTITLE7=Northeast Texas Women
TTITLE8=Boats To Build
TTITLE9=Margaritaville
TTITLE10=It's 5 O'Clock Somewhere
TTITLE11=Designated Drinker
TTITLE12=Texas Women
TTITLE13=Seven Bridges Road
TTITLE14=Where I Come From
EXTD=
EXTT0=
EXTT1=
EXTT2=
EXTT3=
EXTT4=
EXTT5=
EXTT6=
EXTT7=
EXTT8=
EXTT9=
EXTT10=
EXTT11=
EXTT12=
EXTT13=
EXTT14=
PLAYORDER=
